<svg version="1.1" id="Layer_1" xmlns="http://www.w3.org/2000/svg" x="0" y="0" viewBox="0 0 80 80" style="enable-background:new 0 0 80 80" xml:space="preserve"><style>.st0{fill:#80bb41}</style><g id="s3WRDY.tif"><path class="st0" d="M42 1.2c1.7 1 1.9 2.1.4 3.5l-1.8 1.8c1.2.1 2.3.2 3.4.3 13.7 1.6 25.4 11.8 28.5 25.3 3 13.4-.9 24.6-11.2 33.7l-.3.3c-.9.6-1.9.6-2.5-.2-.7-.8-.6-1.8.3-2.6 2-1.7 3.8-3.5 5.3-5.6 12.8-17.3 3.3-42.5-17.7-47-2-.4-4.1-.6-6.1-.9 0 .1-.1.2-.1.3.6.6 1.2 1.3 1.9 1.9.3.3.6.5.8.8.7.8.7 1.9 0 2.5-.7.6-1.7.6-2.5-.1-1.5-1.4-2.9-2.9-4.3-4.3-.4-.4-.9-.8-1.3-1.3-.7-.8-.7-1.7 0-2.4 1.8-1.9 3.7-3.7 5.6-5.5.3-.3.6-.4 1-.6.1.1.4.1.6.1z"/><path class="st0" d="M59.4 40.1c0 10.7-8.7 19.3-19.3 19.3-10.8 0-19.4-8.7-19.4-19.4S29.4 20.7 40 20.7c10.7 0 19.4 8.6 19.4 19.4zm-3.6-.1c0-8.7-7.1-15.9-15.8-15.9-8.9 0-16 7.1-15.9 16 0 8.6 7.2 15.7 15.9 15.7 8.7.1 15.9-7.1 15.8-15.8z"/><path class="st0" d="M39.9 69.7c-.9-.9-1.9-1.7-2.8-2.6-.6-.6-.7-1.5-.3-2.1.4-.7 1.1-1 1.8-.8.4.1.8.3 1 .6l5.4 5.4c.9.9.9 1.8 0 2.7l-5.4 5.4c-.8.8-1.9.8-2.6.1-.7-.7-.7-1.8.1-2.6.6-.7 1.3-1.3 2-2v-.2c-1.1-.1-2.2-.2-3.2-.3-14.2-1.7-26.3-12.8-28.7-27-2.3-12.7 1.6-23.4 11.3-31.9.2-.2.5-.4.8-.6.8-.5 1.7-.3 2.2.3.6.7.6 1.6 0 2.3-.3.3-.7.6-1 .9-8.8 8-12.3 17.8-9.7 29.3C13.4 58 20.8 65.4 32 68.9c1.4.4 2.9.7 4.4.9 1.1.2 2.2.2 3.4.3 0-.2 0-.3.1-.4z"/><path class="st0" d="M41.8 30.8c1.2.6 2.3 1.1 3.4 1.7 1.1.6 1.3 1.7.7 2.6-.6.9-1.6 1-2.7.3-1.2-.8-2.5-1.3-4-.9-.1 0-.3.1-.4.1-.6.3-1.3.6-1.4 1.4-.1.8.6 1.1 1.2 1.4 1 .5 2 .8 3 1.3.9.4 1.9.9 2.7 1.5 2.2 1.7 2.4 4.7.5 6.7-.7.7-1.6 1.2-2.4 1.6-.5.2-.7.5-.6 1 0 .5 0 1-.1 1.5-.2.8-.9 1.3-1.7 1.3-.8 0-1.5-.5-1.7-1.3-.1-.5-.1-1-.1-1.5s-.2-.6-.6-.8c-1-.4-2-.9-2.9-1.4-.9-.6-1.1-1.6-.6-2.4.6-.8 1.6-1.1 2.5-.4 1.1.8 2.3 1.3 3.7 1.1.6-.1 1.3-.4 1.8-.8.7-.6.7-1.3-.1-1.8-.4-.3-.9-.5-1.3-.7-1.3-.6-2.6-1-3.9-1.7-1.9-1-3.2-2.5-3-4.8.2-2.2 1.6-3.5 3.5-4.3.7-.3.9-.6.9-1.3-.1-1.6.6-2.5 1.8-2.4 1.1 0 1.7.8 1.8 2.4v.6z"/></g></svg>