<svg version="1.1" id="Layer_1" xmlns="http://www.w3.org/2000/svg" x="0" y="0" viewBox="0 0 80 80" style="enable-background:new 0 0 80 80" xml:space="preserve"><style>.st0{fill:#80bb41}</style><g id="HmSqMM.tif"><path class="st0" d="M79.1 48.6V64c-.5.7-1.1.9-1.9.8-1.1-.1-2.3 0-3.4 0-.7 2.7-2.4 4.4-5.1 5.2h10.4v2.6H.7v-2.7h10.5c-2.7-.8-4.4-2.5-5.1-5.2H2.5c-1.3 0-1.8-.4-1.8-1.8V19.4c0-1.3.4-1.8 1.7-1.8h51.4c1.3 0 1.7.4 1.7 1.7v11.4h12.7c2.7 0 4.3 1.6 4.3 4.3v8.9c0 .5.1.7.5 1 1.6.9 3.1 1.8 4.7 2.7.6.3 1 .7 1.4 1zM53 20.4H3.4v31.3H53V20.4zm7.9 41.8c1.1-3.2 3.1-5 5.9-5.2 1.4-.1 2.6.2 3.8.9 1.7 1 2.6 2.5 3.1 4.3h2.7v-3.9h-3.6c-1.1 0-1.5-.5-1.5-1.6V52c0-1.2.5-1.6 1.6-1.6h3.6c0-.1.1-.2.1-.2-.2-.2-.4-.5-.7-.6-1.6-.9-3.1-1.8-4.7-2.7-.4-.2-.9-.3-1.3-.3h-6c-1.3 0-1.7-.4-1.7-1.7V33.7h-6.5v28.6c1.7-.1 3.4-.1 5.2-.1zm-42.5-1.6c1.6-2.6 3.8-4 6.8-3.6 3 .4 4.8 2.3 5.5 5.1H53v-7.7H3.5v7.8h2.7c.8-2.9 2.6-4.7 5.6-5.1 2.8-.4 5 .9 6.6 3.5zm42.5 4.2h-30c-.8 1.2-1.3 2.4-2.2 3.3-.9.9-2.1 1.4-2.9 1.9H66c-2.6-.8-4.3-2.4-5.1-5.2zM70 43.9v-9.1c0-.6-.4-1.2-1-1.2-1.4-.1-2.8 0-4.2 0v10.3H70zM16.4 63.5c0-2.2-1.8-3.9-3.9-3.9-2.1 0-3.9 1.8-3.9 3.9 0 2.2 1.8 3.9 3.9 3.9 2.1 0 3.9-1.8 3.9-3.9zm7.8-3.9c-2.1 0-3.9 1.8-3.9 3.9 0 2.2 1.8 3.9 3.9 3.9 2.1 0 3.9-1.8 3.9-3.9.1-2.2-1.7-3.9-3.9-3.9zm47.1 3.9c0-2.2-1.8-3.9-3.9-3.9-2.1 0-3.9 1.8-3.9 3.9 0 2.2 1.8 3.9 3.9 3.9 2.1 0 3.9-1.7 3.9-3.9zM13.6 70H23c-2-.5-3.6-1.7-4.6-3.6-1.5 2.2-2.3 2.8-4.8 3.6zm62.9-16.9H74v2.5h2.5v-2.5zM39.9 12.6H24.3v2.5h15.6v-2.5zm-5.2-5.2H19.1v2.5h15.6V7.4zm-20.8 0v2.5h2.5V7.4h-2.5z"/><path class="st0" d="M39.9 12.6v2.5H24.3v-2.5h15.6zM34.7 7.4v2.5H19.1V7.4h15.6zM13.9 7.4h2.5v2.5h-2.5V7.4zM25.9 37.4c1.6 2 .7 4.3 1 6.5h-2.7v-3.5c0-1.2-.4-1.7-1.7-1.7h-2.2v5.2h-2.7V32.6c0-1.2.4-1.7 1.7-1.7h3.1c1.7 0 3.1.6 3.9 2.1.9 1.4.7 2.9-.4 4.4zm-5.5-1.3h2.7c.7 0 1.2-.6 1.2-1.3 0-.7-.5-1.3-1.2-1.3h-2.7v2.6zM36 36v2.6h-3.8v2.6h5.1v2.6h-6.6c-.7 0-1.2-.6-1.2-1.3V32.1c0-.8.4-1.3 1.2-1.3 2.2-.1 4.4 0 6.6 0v2.6h-5.1V36H36zM47.7 30.8v2.6h-5.1V36h3.8v2.6h-3.8v2.7h5.1v2.6h-6.3c-1 0-1.5-.5-1.5-1.5V32.3c0-.9.5-1.5 1.3-1.5h6.5zM15 33.5H9.9v2.6h3.8v2.6H9.8v5.2H7.2V32.6c0-1.3.4-1.7 1.7-1.7H15v2.6zM68.6 49.2v2.5h-5.1v-2.5h5.1zM13.7 64.8h-2.5v-2.5h2.5v2.5zM23 62.2h2.5v2.5H23v-2.5zM68.6 64.8h-2.5v-2.5h2.5v2.5z"/></g></svg>