<svg version="1.1" id="Layer_1" xmlns="http://www.w3.org/2000/svg" x="0" y="0" viewBox="0 0 80 80" style="enable-background:new 0 0 80 80" xml:space="preserve"><style>.st0{fill:#80bb41}</style><g id="_x38_koFZN.tif"><path class="st0" d="M68.3 20.7H5v25c0 3.1 1.8 4.9 4.9 4.9h23.7c.8.1 1.4.9 1.4 1.7 0 .8-.7 1.5-1.5 1.5H9.7c-4 0-7.1-2.6-7.8-6.5-.1-.6-.1-1.3-.1-1.9V14.7c.1-4.1 3.4-7.3 7.5-7.5h54.3c3.5 0 6 1.5 7.4 4.7.4 1 .7 2.2.7 3.2.1 5.6 0 11.2 0 16.8 0 1.2-.7 1.9-1.7 1.9s-1.7-.7-1.7-1.9V20.7zm-.1-3.4c0-.1.1-.2.1-.2v-1.6c0-2.9-1.9-4.7-4.8-4.7H9.7c-1.9 0-3.3.8-4.2 2.5-.7 1.3-.5 2.8-.5 4.2 21.2-.2 42.2-.2 63.2-.2z"/><path class="st0" d="M41.7 55.6c0-10.1 8.2-18.3 18.3-18.3 10.1 0 18.3 8.2 18.3 18.3 0 10.1-8.2 18.3-18.3 18.3-10.1 0-18.3-8.1-18.3-18.3zm3.3 0c0 8.3 6.7 15 15 15s15-6.7 15-15-6.7-15-15-15-15 6.7-15 15zM16.7 42.3H23c1.2 0 2 .7 2 1.7s-.8 1.6-2 1.6H10.2c-.9 0-1.5-.4-1.8-1.1-.2-.7 0-1.5.6-1.9.4-.2.8-.3 1.2-.3h6.5zM13.3 37.3h-3c-1.2 0-1.9-.7-1.9-1.7s.8-1.6 1.9-1.6h6.2c1.2 0 1.9.7 1.9 1.7s-.7 1.6-1.9 1.7c-1.1-.1-2.1-.1-3.2-.1z"/><path class="st0" d="m60 58.3 5.2-5.2c.3-.3.6-.6 1-.7.7-.2 1.3-.1 1.8.6.4.6.5 1.4 0 2-.1.2-.3.3-.4.5l-6.2 6.2c-1 1-1.9 1-2.8 0l-4.5-4.5c-.9-.9-1-1.9-.2-2.6.7-.7 1.7-.6 2.5.2 1.2 1 2.3 2.2 3.6 3.5z"/></g></svg>